<svg width="1080" height="1080" viewBox="0 0 1080 1080" fill="none" xmlns="http://www.w3.org/2000/svg">
<path d="M734.099 556.8C728.233 554.8 722.899 552.8 718.099 550.8C713.299 548.667 709.166 546.133 705.699 543.2C702.233 540.267 699.499 536.8 697.499 532.8C695.633 528.667 694.699 523.667 694.699 517.8C694.699 506.467 699.033 497.4 707.699 490.6C716.499 483.8 728.766 480.4 744.499 480.4C750.233 480.4 755.566 480.8 760.499 481.6C765.433 482.4 769.633 483.667 773.099 485.4C776.699 487 779.499 489.133 781.499 491.8C783.499 494.333 784.499 497.333 784.499 500.8C784.499 504.267 783.699 507.267 782.099 509.8C780.499 512.2 778.566 514.267 776.299 516C773.366 514.133 769.433 512.533 764.499 511.2C759.566 509.733 754.166 509 748.299 509C742.299 509 737.899 509.867 735.099 511.6C732.299 513.2 730.899 515.267 730.899 517.8C730.899 519.8 731.766 521.467 733.499 522.8C735.233 524 737.833 525.133 741.299 526.2L751.899 529.6C764.433 533.6 774.033 538.733 780.699 545C787.499 551.133 790.899 559.533 790.899 570.2C790.899 581.533 786.433 590.733 777.499 597.8C768.566 604.733 755.433 608.2 738.099 608.2C731.966 608.2 726.233 607.667 720.899 606.6C715.699 605.667 711.099 604.267 707.099 602.4C703.233 600.4 700.166 598 697.899 595.2C695.766 592.267 694.699 588.933 694.699 585.2C694.699 581.333 695.833 578.067 698.099 575.4C700.366 572.6 702.833 570.467 705.499 569C709.233 571.933 713.766 574.467 719.099 576.6C724.566 578.733 730.499 579.8 736.899 579.8C743.433 579.8 748.033 578.8 750.699 576.8C753.366 574.8 754.699 572.467 754.699 569.8C754.699 567.133 753.633 565.133 751.499 563.8C749.366 562.333 746.366 560.933 742.499 559.6L734.099 556.8ZM928.246 556.4C928.246 564.667 926.979 572.067 924.446 578.6C921.913 585 918.313 590.4 913.646 594.8C909.113 599.2 903.646 602.533 897.246 604.8C890.846 607.067 883.713 608.2 875.846 608.2C867.979 608.2 860.846 607 854.446 604.6C848.046 602.2 842.513 598.8 837.846 594.4C833.313 589.867 829.779 584.4 827.246 578C824.713 571.6 823.446 564.4 823.446 556.4C823.446 548.533 824.713 541.4 827.246 535C829.779 528.6 833.313 523.2 837.846 518.8C842.513 514.267 848.046 510.8 854.446 508.4C860.846 506 867.979 504.8 875.846 504.8C883.713 504.8 890.846 506.067 897.246 508.6C903.646 511 909.113 514.467 913.646 519C918.313 523.4 921.913 528.8 924.446 535.2C926.979 541.6 928.246 548.667 928.246 556.4ZM858.246 556.4C858.246 564.533 859.779 570.8 862.846 575.2C866.046 579.467 870.446 581.6 876.046 581.6C881.646 581.6 885.913 579.4 888.846 575C891.913 570.6 893.446 564.4 893.446 556.4C893.446 548.4 891.913 542.267 888.846 538C885.779 533.6 881.446 531.4 875.846 531.4C870.246 531.4 865.913 533.6 862.846 538C859.779 542.267 858.246 548.4 858.246 556.4Z" fill="black"/>
</svg>
