<svg width="1080" height="1080" viewBox="0 0 1080 1080" fill="none" xmlns="http://www.w3.org/2000/svg">
<path d="M184.366 487.4C186.633 486.067 190.033 484.8 194.566 483.6C199.233 482.4 203.9 481.8 208.566 481.8C215.233 481.8 221.1 482.8 226.166 484.8C231.366 486.667 234.7 489.667 236.166 493.8C238.566 500.733 241.166 508.8 243.966 518C246.766 527.2 249.566 536.733 252.366 546.6C255.166 556.333 257.9 566 260.566 575.6C263.233 585.067 265.566 593.467 267.566 600.8C265.966 602.667 263.566 604.133 260.366 605.2C257.166 606.4 253.366 607 248.966 607C245.766 607 243.033 606.733 240.766 606.2C238.633 605.667 236.833 604.867 235.366 603.8C234.033 602.733 232.9 601.333 231.966 599.6C231.166 597.867 230.433 595.867 229.766 593.6L226.166 579.8H189.966C188.9 583.8 187.833 587.933 186.766 592.2C185.7 596.467 184.633 600.6 183.566 604.6C181.7 605.267 179.7 605.8 177.566 606.2C175.566 606.733 173.1 607 170.166 607C163.366 607 158.3 605.867 154.966 603.6C151.766 601.2 150.166 597.933 150.166 593.8C150.166 591.933 150.433 590.067 150.966 588.2C151.5 586.333 152.1 584.133 152.766 581.6C153.7 578 154.966 573.533 156.566 568.2C158.3 562.867 160.166 557.133 162.166 551C164.166 544.733 166.3 538.333 168.566 531.8C170.833 525.267 172.966 519.133 174.966 513.4C176.966 507.533 178.766 502.333 180.366 497.8C182.1 493.267 183.433 489.8 184.366 487.4ZM208.366 513.2C206.5 518.8 204.366 525.067 201.966 532C199.7 538.8 197.633 545.733 195.766 552.8H220.566C218.7 545.6 216.766 538.6 214.766 531.8C212.9 524.867 211.166 518.667 209.566 513.2H208.366ZM362.957 543.4C362.957 539.267 361.757 536.267 359.357 534.4C357.09 532.4 353.957 531.4 349.957 531.4C347.29 531.4 344.624 531.733 341.957 532.4C339.424 533.067 337.224 534.067 335.357 535.4V604.8C334.024 605.2 331.89 605.6 328.957 606C326.157 606.4 323.224 606.6 320.157 606.6C317.224 606.6 314.557 606.4 312.157 606C309.89 605.6 307.957 604.8 306.357 603.6C304.757 602.4 303.49 600.8 302.557 598.8C301.757 596.667 301.357 593.933 301.357 590.6V530.6C301.357 527 302.09 524.067 303.557 521.8C305.157 519.533 307.29 517.467 309.957 515.6C314.49 512.4 320.157 509.8 326.957 507.8C333.89 505.8 341.557 504.8 349.957 504.8C365.024 504.8 376.624 508.133 384.757 514.8C392.89 521.333 396.957 530.467 396.957 542.2V604.8C395.624 605.2 393.49 605.6 390.557 606C387.757 606.4 384.824 606.6 381.757 606.6C378.824 606.6 376.157 606.4 373.757 606C371.49 605.6 369.557 604.8 367.957 603.6C366.357 602.4 365.09 600.8 364.157 598.8C363.357 596.667 362.957 593.933 362.957 590.6V543.4ZM532.959 587.4C532.292 593.667 530.425 598.467 527.359 601.8C524.425 605.133 520.092 606.8 514.359 606.8C510.092 606.8 506.292 605.8 502.959 603.8C499.625 601.667 496.025 598.133 492.159 593.2L472.359 568.4V604.8C470.892 605.067 468.692 605.4 465.759 605.8C462.959 606.333 460.092 606.6 457.159 606.6C454.225 606.6 451.559 606.4 449.159 606C446.892 605.6 444.959 604.8 443.359 603.6C441.759 602.4 440.492 600.8 439.559 598.8C438.759 596.667 438.359 593.933 438.359 590.6V474.8C439.825 474.4 441.959 474 444.759 473.6C447.692 473.067 450.625 472.8 453.559 472.8C456.492 472.8 459.092 473 461.359 473.4C463.759 473.8 465.759 474.6 467.359 475.8C468.959 477 470.159 478.667 470.959 480.8C471.892 482.8 472.359 485.467 472.359 488.8V541.6L506.759 506.4C513.692 506.4 519.225 507.933 523.359 511C527.625 514.067 529.759 517.933 529.759 522.6C529.759 524.6 529.425 526.467 528.759 528.2C528.092 529.8 527.025 531.467 525.559 533.2C524.225 534.933 522.425 536.8 520.159 538.8C518.025 540.667 515.492 542.867 512.559 545.4L500.959 555.4L532.959 587.4ZM610.887 583.4C613.153 583.4 615.62 583.2 618.287 582.8C621.087 582.267 623.153 581.6 624.487 580.8V564.8L610.087 566C606.353 566.267 603.287 567.067 600.887 568.4C598.487 569.733 597.287 571.733 597.287 574.4C597.287 577.067 598.287 579.267 600.287 581C602.42 582.6 605.953 583.4 610.887 583.4ZM609.287 504.8C616.487 504.8 623.02 505.533 628.887 507C634.887 508.467 639.953 510.733 644.087 513.8C648.353 516.733 651.62 520.533 653.887 525.2C656.153 529.733 657.287 535.133 657.287 541.4V586.2C657.287 589.667 656.287 592.533 654.287 594.8C652.42 596.933 650.153 598.8 647.487 600.4C638.82 605.6 626.62 608.2 610.887 608.2C603.82 608.2 597.42 607.533 591.687 606.2C586.087 604.867 581.22 602.867 577.087 600.2C573.087 597.533 569.953 594.133 567.687 590C565.553 585.867 564.487 581.067 564.487 575.6C564.487 566.4 567.22 559.333 572.687 554.4C578.153 549.467 586.62 546.4 598.087 545.2L624.287 542.4V541C624.287 537.133 622.553 534.4 619.087 532.8C615.753 531.067 610.887 530.2 604.487 530.2C599.42 530.2 594.487 530.733 589.687 531.8C584.887 532.867 580.553 534.2 576.687 535.8C574.953 534.6 573.487 532.8 572.287 530.4C571.087 527.867 570.487 525.267 570.487 522.6C570.487 519.133 571.287 516.4 572.887 514.4C574.62 512.267 577.22 510.467 580.687 509C584.553 507.533 589.087 506.467 594.287 505.8C599.62 505.133 604.62 504.8 609.287 504.8Z" fill="white"/>
<path d="M734.099 556.8C728.233 554.8 722.899 552.8 718.099 550.8C713.299 548.667 709.166 546.133 705.699 543.2C702.233 540.267 699.499 536.8 697.499 532.8C695.633 528.667 694.699 523.667 694.699 517.8C694.699 506.467 699.033 497.4 707.699 490.6C716.499 483.8 728.766 480.4 744.499 480.4C750.233 480.4 755.566 480.8 760.499 481.6C765.433 482.4 769.633 483.667 773.099 485.4C776.699 487 779.499 489.133 781.499 491.8C783.499 494.333 784.499 497.333 784.499 500.8C784.499 504.267 783.699 507.267 782.099 509.8C780.499 512.2 778.566 514.267 776.299 516C773.366 514.133 769.433 512.533 764.499 511.2C759.566 509.733 754.166 509 748.299 509C742.299 509 737.899 509.867 735.099 511.6C732.299 513.2 730.899 515.267 730.899 517.8C730.899 519.8 731.766 521.467 733.499 522.8C735.233 524 737.833 525.133 741.299 526.2L751.899 529.6C764.433 533.6 774.033 538.733 780.699 545C787.499 551.133 790.899 559.533 790.899 570.2C790.899 581.533 786.433 590.733 777.499 597.8C768.566 604.733 755.433 608.2 738.099 608.2C731.966 608.2 726.233 607.667 720.899 606.6C715.699 605.667 711.099 604.267 707.099 602.4C703.233 600.4 700.166 598 697.899 595.2C695.766 592.267 694.699 588.933 694.699 585.2C694.699 581.333 695.833 578.067 698.099 575.4C700.366 572.6 702.833 570.467 705.499 569C709.233 571.933 713.766 574.467 719.099 576.6C724.566 578.733 730.499 579.8 736.899 579.8C743.433 579.8 748.033 578.8 750.699 576.8C753.366 574.8 754.699 572.467 754.699 569.8C754.699 567.133 753.633 565.133 751.499 563.8C749.366 562.333 746.366 560.933 742.499 559.6L734.099 556.8ZM928.246 556.4C928.246 564.667 926.979 572.067 924.446 578.6C921.913 585 918.313 590.4 913.646 594.8C909.113 599.2 903.646 602.533 897.246 604.8C890.846 607.067 883.713 608.2 875.846 608.2C867.979 608.2 860.846 607 854.446 604.6C848.046 602.2 842.513 598.8 837.846 594.4C833.313 589.867 829.779 584.4 827.246 578C824.713 571.6 823.446 564.4 823.446 556.4C823.446 548.533 824.713 541.4 827.246 535C829.779 528.6 833.313 523.2 837.846 518.8C842.513 514.267 848.046 510.8 854.446 508.4C860.846 506 867.979 504.8 875.846 504.8C883.713 504.8 890.846 506.067 897.246 508.6C903.646 511 909.113 514.467 913.646 519C918.313 523.4 921.913 528.8 924.446 535.2C926.979 541.6 928.246 548.667 928.246 556.4ZM858.246 556.4C858.246 564.533 859.779 570.8 862.846 575.2C866.046 579.467 870.446 581.6 876.046 581.6C881.646 581.6 885.913 579.4 888.846 575C891.913 570.6 893.446 564.4 893.446 556.4C893.446 548.4 891.913 542.267 888.846 538C885.779 533.6 881.446 531.4 875.846 531.4C870.246 531.4 865.913 533.6 862.846 538C859.779 542.267 858.246 548.4 858.246 556.4Z" fill="#21364A"/>
</svg>
