<svg width="1080" height="1080" viewBox="0 0 1080 1080" fill="none" xmlns="http://www.w3.org/2000/svg">
<path d="M184.366 487.4C186.633 486.067 190.033 484.8 194.566 483.6C199.233 482.4 203.9 481.8 208.566 481.8C215.233 481.8 221.1 482.8 226.166 484.8C231.366 486.667 234.7 489.667 236.166 493.8C238.566 500.733 241.166 508.8 243.966 518C246.766 527.2 249.566 536.733 252.366 546.6C255.166 556.333 257.9 566 260.566 575.6C263.233 585.067 265.566 593.467 267.566 600.8C265.966 602.667 263.566 604.133 260.366 605.2C257.166 606.4 253.366 607 248.966 607C245.766 607 243.033 606.733 240.766 606.2C238.633 605.667 236.833 604.867 235.366 603.8C234.033 602.733 232.9 601.333 231.966 599.6C231.166 597.867 230.433 595.867 229.766 593.6L226.166 579.8H189.966C188.9 583.8 187.833 587.933 186.766 592.2C185.7 596.467 184.633 600.6 183.566 604.6C181.7 605.267 179.7 605.8 177.566 606.2C175.566 606.733 173.1 607 170.166 607C163.366 607 158.3 605.867 154.966 603.6C151.766 601.2 150.166 597.933 150.166 593.8C150.166 591.933 150.433 590.067 150.966 588.2C151.5 586.333 152.1 584.133 152.766 581.6C153.7 578 154.966 573.533 156.566 568.2C158.3 562.867 160.166 557.133 162.166 551C164.166 544.733 166.3 538.333 168.566 531.8C170.833 525.267 172.966 519.133 174.966 513.4C176.966 507.533 178.766 502.333 180.366 497.8C182.1 493.267 183.433 489.8 184.366 487.4ZM208.366 513.2C206.5 518.8 204.366 525.067 201.966 532C199.7 538.8 197.633 545.733 195.766 552.8H220.566C218.7 545.6 216.766 538.6 214.766 531.8C212.9 524.867 211.166 518.667 209.566 513.2H208.366ZM362.957 543.4C362.957 539.267 361.757 536.267 359.357 534.4C357.09 532.4 353.957 531.4 349.957 531.4C347.29 531.4 344.624 531.733 341.957 532.4C339.424 533.067 337.224 534.067 335.357 535.4V604.8C334.024 605.2 331.89 605.6 328.957 606C326.157 606.4 323.224 606.6 320.157 606.6C317.224 606.6 314.557 606.4 312.157 606C309.89 605.6 307.957 604.8 306.357 603.6C304.757 602.4 303.49 600.8 302.557 598.8C301.757 596.667 301.357 593.933 301.357 590.6V530.6C301.357 527 302.09 524.067 303.557 521.8C305.157 519.533 307.29 517.467 309.957 515.6C314.49 512.4 320.157 509.8 326.957 507.8C333.89 505.8 341.557 504.8 349.957 504.8C365.024 504.8 376.624 508.133 384.757 514.8C392.89 521.333 396.957 530.467 396.957 542.2V604.8C395.624 605.2 393.49 605.6 390.557 606C387.757 606.4 384.824 606.6 381.757 606.6C378.824 606.6 376.157 606.4 373.757 606C371.49 605.6 369.557 604.8 367.957 603.6C366.357 602.4 365.09 600.8 364.157 598.8C363.357 596.667 362.957 593.933 362.957 590.6V543.4ZM532.959 587.4C532.292 593.667 530.425 598.467 527.359 601.8C524.425 605.133 520.092 606.8 514.359 606.8C510.092 606.8 506.292 605.8 502.959 603.8C499.625 601.667 496.025 598.133 492.159 593.2L472.359 568.4V604.8C470.892 605.067 468.692 605.4 465.759 605.8C462.959 606.333 460.092 606.6 457.159 606.6C454.225 606.6 451.559 606.4 449.159 606C446.892 605.6 444.959 604.8 443.359 603.6C441.759 602.4 440.492 600.8 439.559 598.8C438.759 596.667 438.359 593.933 438.359 590.6V474.8C439.825 474.4 441.959 474 444.759 473.6C447.692 473.067 450.625 472.8 453.559 472.8C456.492 472.8 459.092 473 461.359 473.4C463.759 473.8 465.759 474.6 467.359 475.8C468.959 477 470.159 478.667 470.959 480.8C471.892 482.8 472.359 485.467 472.359 488.8V541.6L506.759 506.4C513.692 506.4 519.225 507.933 523.359 511C527.625 514.067 529.759 517.933 529.759 522.6C529.759 524.6 529.425 526.467 528.759 528.2C528.092 529.8 527.025 531.467 525.559 533.2C524.225 534.933 522.425 536.8 520.159 538.8C518.025 540.667 515.492 542.867 512.559 545.4L500.959 555.4L532.959 587.4ZM610.887 583.4C613.153 583.4 615.62 583.2 618.287 582.8C621.087 582.267 623.153 581.6 624.487 580.8V564.8L610.087 566C606.353 566.267 603.287 567.067 600.887 568.4C598.487 569.733 597.287 571.733 597.287 574.4C597.287 577.067 598.287 579.267 600.287 581C602.42 582.6 605.953 583.4 610.887 583.4ZM609.287 504.8C616.487 504.8 623.02 505.533 628.887 507C634.887 508.467 639.953 510.733 644.087 513.8C648.353 516.733 651.62 520.533 653.887 525.2C656.153 529.733 657.287 535.133 657.287 541.4V586.2C657.287 589.667 656.287 592.533 654.287 594.8C652.42 596.933 650.153 598.8 647.487 600.4C638.82 605.6 626.62 608.2 610.887 608.2C603.82 608.2 597.42 607.533 591.687 606.2C586.087 604.867 581.22 602.867 577.087 600.2C573.087 597.533 569.953 594.133 567.687 590C565.553 585.867 564.487 581.067 564.487 575.6C564.487 566.4 567.22 559.333 572.687 554.4C578.153 549.467 586.62 546.4 598.087 545.2L624.287 542.4V541C624.287 537.133 622.553 534.4 619.087 532.8C615.753 531.067 610.887 530.2 604.487 530.2C599.42 530.2 594.487 530.733 589.687 531.8C584.887 532.867 580.553 534.2 576.687 535.8C574.953 534.6 573.487 532.8 572.287 530.4C571.087 527.867 570.487 525.267 570.487 522.6C570.487 519.133 571.287 516.4 572.887 514.4C574.62 512.267 577.22 510.467 580.687 509C584.553 507.533 589.087 506.467 594.287 505.8C599.62 505.133 604.62 504.8 609.287 504.8Z" fill="black"/>
</svg>
